<svg width="118" height="118" viewBox="0 0 118 118" fill="none" xmlns="http://www.w3.org/2000/svg">
<path fill-rule="evenodd" clip-rule="evenodd" d="M117.333 59C117.333 64.0356 116.695 68.9222 115.496 73.5834H2.50444C1.30475 68.9222 0.666687 64.0356 0.666687 59C0.666687 26.7834 26.7834 0.666687 59 0.666687C91.2166 0.666687 117.333 26.7834 117.333 59ZM97.8879 78.4445H114.014C106.006 101.101 84.3987 117.333 59 117.333C33.6013 117.333 11.9939 101.101 3.98596 78.4445H20.1104L29.8325 88.1666H88.1658L97.8879 78.4445ZM68.6892 35.4903C68.7105 35.2277 68.7214 34.9623 68.7214 34.6943C68.7214 29.3248 64.3686 24.9721 58.9991 24.9721C53.6297 24.9721 49.2769 29.3248 49.2769 34.6943C49.2769 34.9622 49.2878 35.2277 49.309 35.4902C20.1103 40.612 20.1103 68.7221 20.1103 68.7221H97.888C97.888 68.7221 97.888 40.6124 68.6892 35.4903Z" fill="#F05193"/>
</svg>
