<svg width="104" height="104" viewBox="0 0 104 104" fill="none" xmlns="http://www.w3.org/2000/svg">
<path fill-rule="evenodd" clip-rule="evenodd" d="M103.667 52C103.667 56.4601 103.101 60.7882 102.039 64.9167H1.96098C0.898395 60.7882 0.333252 56.4601 0.333252 52C0.333252 23.4653 23.4652 0.333328 51.9999 0.333328C80.5346 0.333328 103.667 23.4653 103.667 52ZM86.4435 69.2222H100.727C93.6339 89.2894 74.4959 103.667 51.9999 103.667C29.5039 103.667 10.3659 89.2894 3.27318 69.2222H17.5548L26.1658 77.8332H77.8325L86.4435 69.2222ZM60.5818 31.1771C60.6006 30.9445 60.6102 30.7094 60.6102 30.4721C60.6102 25.7163 56.7549 21.8609 51.9991 21.8609C47.2433 21.8609 43.388 25.7163 43.388 30.4721C43.388 30.7094 43.3976 30.9445 43.4165 31.177C17.5547 35.7135 17.5547 60.611 17.5547 60.611H86.4436C86.4436 60.611 86.4436 35.7138 60.5818 31.1771Z" fill="white"/>
</svg>
